<svg width="100" height="100" viewBox="0 0 100 100" fill="none" xmlns="http://www.w3.org/2000/svg">
<g clip-path="url(#clip0_3_2)">
<rect width="100" height="100" rx="37" fill="black"/>
<path d="M14.584 50.104C14.584 46.776 15.304 43.816 16.744 41.224C18.184 38.6 20.184 36.568 22.744 35.128C25.336 33.656 28.264 32.92 31.528 32.92C35.528 32.92 38.952 33.976 41.8 36.088C44.648 38.2 46.552 41.08 47.512 44.728H38.488C37.816 43.32 36.856 42.248 35.608 41.512C34.392 40.776 33 40.408 31.432 40.408C28.904 40.408 26.856 41.288 25.288 43.048C23.72 44.808 22.936 47.16 22.936 50.104C22.936 53.048 23.72 55.4 25.288 57.16C26.856 58.92 28.904 59.8 31.432 59.8C33 59.8 34.392 59.432 35.608 58.696C36.856 57.96 37.816 56.888 38.488 55.48H47.512C46.552 59.128 44.648 62.008 41.8 64.12C38.952 66.2 35.528 67.24 31.528 67.24C28.264 67.24 25.336 66.52 22.744 65.08C20.184 63.608 18.184 61.576 16.744 58.984C15.304 56.392 14.584 53.432 14.584 50.104ZM51.1465 50.104C51.1465 46.776 51.8665 43.816 53.3065 41.224C54.7465 38.6 56.7465 36.568 59.3065 35.128C61.8985 33.656 64.8265 32.92 68.0905 32.92C72.0905 32.92 75.5145 33.976 78.3625 36.088C81.2105 38.2 83.1145 41.08 84.0745 44.728H75.0505C74.3785 43.32 73.4185 42.248 72.1705 41.512C70.9545 40.776 69.5625 40.408 67.9945 40.408C65.4665 40.408 63.4185 41.288 61.8505 43.048C60.2825 44.808 59.4985 47.16 59.4985 50.104C59.4985 53.048 60.2825 55.4 61.8505 57.16C63.4185 58.92 65.4665 59.8 67.9945 59.8C69.5625 59.8 70.9545 59.432 72.1705 58.696C73.4185 57.96 74.3785 56.888 75.0505 55.48H84.0745C83.1145 59.128 81.2105 62.008 78.3625 64.12C75.5145 66.2 72.0905 67.24 68.0905 67.24C64.8265 67.24 61.8985 66.52 59.3065 65.08C56.7465 63.608 54.7465 61.576 53.3065 58.984C51.8665 56.392 51.1465 53.432 51.1465 50.104Z" fill="white"/>
</g>
<defs>
<clipPath id="clip0_3_2">
<rect width="100" height="100" fill="white"/>
</clipPath>
</defs>
</svg>
